# xmcd
#
# Track frame offsets: 
#        180
#        21759
#        39160
#        58193
#        77899
#        97481
#        112538
#        129301
#        145190
#        163381
#        179369
#
# Disc length: 2627 seconds
#
# Revision: 0
# Processed by: cddbd v1.5.1PL0 Copyright (c) Steve Scherf et al.
# Submitted via: ExactAudioCopy v0.90b4
#
DISCID=910a410b
DTITLE=Violet Ray - Good Things
DYEAR=1998
DGENRE=Country
TTITLE0=Why
TTITLE1=Wake Me If I'm Dreaming
TTITLE2=Heartache Bar
TTITLE3=Babie's Gonna Dress In Blue
TTITLE4=Long Gone
TTITLE5=Three Long Days
TTITLE6=Good Things
TTITLE7=The Honky Tonk
TTITLE8=Hurt Me Best
TTITLE9=That's What They Say
TTITLE10=One More Time Around
EXTD=
EXTT0=
EXTT1=
EXTT2=
EXTT3=
EXTT4=
EXTT5=
EXTT6=
EXTT7=
EXTT8=
EXTT9=
EXTT10=
PLAYORDER=
